<svg xmlns="http://www.w3.org/2000/svg" viewBox="0 0 512 512" role="img" aria-label="Moto Mate">
  <rect width="512" height="512" rx="112" fill="#0d0d0d"/>
  <path d="M88 322c0-47 38-85 85-85 33 0 62 19 76 47h44c14-28 43-47 76-47 47 0 85 38 85 85s-38 85-85 85c-42 0-77-31-84-71h-68c-7 40-42 71-84 71-47 0-85-38-85-85Z" fill="#ffb300"/>
  <circle cx="173" cy="322" r="42" fill="#0d0d0d"/>
  <circle cx="369" cy="322" r="42" fill="#0d0d0d"/>
  <path d="M176 186h105l46 76h-55l-27-39h-69v-37Z" fill="#40c4ff"/>
  <path d="M263 186h72l29 34h-80l-21-34Z" fill="#f5f5f5" opacity=".9"/>
</svg>
